<?xml version="1.0" standalone="no"?>
<!DOCTYPE svg PUBLIC "-//W3C//DTD SVG 20010904//EN"
 "http://www.w3.org/TR/2001/REC-SVG-20010904/DTD/svg10.dtd">
<svg version="1.0" xmlns="http://www.w3.org/2000/svg"
 width="1200.000000pt" height="1200.000000pt" viewBox="0 0 1200.000000 1200.000000"
 preserveAspectRatio="xMidYMid meet">

<g transform="translate(0.000000,1200.000000) scale(0.100000,-0.100000)"
fill="#000000" stroke="none">
<path d="M1950 6000 l0 -2400 4050 0 4050 0 0 2400 0 2400 -4050 0 -4050 0 0
-2400z m7950 0 l0 -2250 -3900 0 -3900 0 0 2250 0 2250 3900 0 3900 0 0 -2250z"/>
<path d="M2250 6000 l0 -2100 3750 0 3750 0 0 2100 0 2100 -3750 0 -3750 0 0
-2100z m7350 1160 l0 -790 -1125 0 -1125 0 0 -70 0 -70 1125 0 1125 0 0 -1090
0 -1090 -3600 0 -3600 0 0 1090 0 1090 1125 0 1125 0 0 70 0 70 -1125 0 -1125
0 0 790 0 790 3600 0 3600 0 0 -790z"/>
<path d="M5642 7423 c-7 -3 -22 -22 -32 -44 -16 -30 -26 -39 -46 -39 -122 0
-175 -164 -59 -186 19 -3 35 -11 35 -17 0 -36 123 -827 132 -850 6 -15 22 -37
36 -47 23 -19 41 -20 292 -20 251 0 269 1 292 20 14 10 30 32 36 47 9 23 132
814 132 850 0 6 16 14 35 17 115 22 63 186 -59 186 -18 0 -30 10 -48 43 l-23
42 -355 2 c-195 1 -361 -1 -368 -4z m706 -60 l14 -23 -361 0 c-198 0 -361 3
-361 7 0 3 8 15 17 25 15 17 37 18 346 16 329 -3 330 -3 345 -25z m155 -105
c11 -14 17 -34 14 -42 -6 -14 -61 -16 -517 -16 -432 0 -511 2 -516 14 -6 16
12 56 30 68 6 4 227 7 490 5 l479 -2 20 -27z m-87 -130 c-3 -13 -6 -33 -6 -45
l0 -23 -410 0 -410 0 0 23 c0 12 -3 32 -6 45 l-6 22 422 0 422 0 -6 -22z
m-724 -348 c20 -124 39 -237 42 -252 5 -25 3 -28 -24 -28 -35 0 -30 -20 -70
255 -17 116 -33 220 -36 233 -4 21 -1 23 23 20 l27 -3 38 -225z m703 208 c-2
-13 -18 -117 -35 -233 -17 -115 -33 -220 -36 -232 l-4 -23 -269 0 -268 0 -37
228 c-21 125 -40 239 -43 255 l-5 27 351 0 351 0 -5 -22z m-90 -600 c-8 -70
-26 -112 -50 -122 -33 -12 -65 -5 -89 19 -24 24 -29 25 -166 25 -137 0 -142
-1 -166 -25 -26 -26 -42 -29 -82 -19 -31 9 -48 46 -57 122 l-7 62 312 0 312 0
-7 -62z"/>
<path d="M5930 6924 c-74 -32 -113 -90 -113 -170 0 -96 72 -174 166 -182 111
-9 200 72 200 183 0 80 -40 138 -115 170 -47 19 -93 19 -138 -1z m153 -56 c56
-40 73 -127 37 -185 -28 -46 -65 -67 -120 -67 -149 0 -194 194 -60 262 52 26
96 23 143 -10z"/>
<path d="M5963 6835 c-74 -32 -72 -130 3 -161 29 -12 39 -12 68 0 77 32 77
130 1 162 -40 16 -32 17 -72 -1z"/>
<path d="M5773 5628 l-63 -30 0 -439 0 -439 70 0 70 0 0 133 0 133 50 49 c27
27 53 45 57 41 5 -4 49 -85 98 -179 l90 -172 83 -3 84 -3 -65 123 c-35 68 -91
174 -123 235 l-59 113 100 100 100 100 -85 0 -85 0 -115 -115 c-63 -63 -118
-115 -122 -115 -5 0 -8 113 -8 250 0 138 -3 250 -7 249 -5 0 -36 -14 -70 -31z"/>
<path d="M3506 5385 c-22 -8 -47 -22 -56 -30 -19 -17 -30 -11 -30 17 0 16 -9
18 -70 18 l-70 0 0 -460 c0 -253 2 -460 5 -460 3 0 35 13 70 29 l65 30 0 120
c0 67 3 121 6 121 3 0 18 -8 32 -19 59 -41 137 -50 222 -25 82 24 152 99 181
194 40 132 17 290 -55 385 -57 75 -208 115 -300 80z m130 -144 c59 -27 86 -76
92 -166 5 -82 -7 -131 -45 -175 -50 -60 -165 -64 -228 -8 l-35 30 0 132 c0
125 1 134 23 154 54 51 126 63 193 33z"/>
<path d="M4274 5386 c-48 -11 -134 -45 -152 -61 -2 -1 7 -27 20 -57 l22 -55
55 26 c46 21 71 25 144 26 88 0 89 0 118 -33 22 -24 29 -42 29 -72 l0 -39 -35
15 c-134 56 -323 6 -374 -100 -43 -87 -20 -211 48 -269 74 -62 217 -72 314
-22 l47 24 0 -24 c0 -24 2 -25 70 -25 l70 0 0 249 c0 260 -4 291 -46 347 -52
70 -196 100 -330 70z m209 -376 c24 -12 27 -19 27 -60 0 -39 -4 -49 -27 -66
-60 -44 -145 -56 -208 -30 -81 34 -72 128 15 165 32 14 157 8 193 -9z"/>
<path d="M5070 5385 c-66 -21 -115 -67 -152 -143 -32 -65 -33 -70 -33 -192 0
-140 13 -183 75 -254 78 -88 224 -112 314 -51 l36 24 0 -37 c0 -80 -50 -123
-163 -143 -39 -7 -74 -13 -75 -15 -2 -1 13 -28 35 -59 l38 -56 58 6 c150 15
220 78 246 220 7 34 11 191 11 382 l0 323 -75 0 c-69 0 -75 -2 -75 -20 0 -20
0 -20 -42 1 -53 27 -139 33 -198 14z m177 -144 c23 -11 46 -28 52 -39 6 -12
11 -78 11 -156 l0 -135 -32 -25 c-85 -63 -201 -30 -238 68 -17 45 -14 166 5
214 33 82 115 112 202 73z"/>
<path d="M6704 5386 c-48 -11 -134 -45 -152 -61 -2 -1 7 -27 20 -57 l22 -55
55 26 c46 21 71 25 144 26 88 0 89 0 118 -33 22 -24 29 -42 29 -72 l0 -39 -35
15 c-134 56 -323 6 -374 -100 -43 -87 -20 -211 48 -269 74 -62 217 -72 314
-22 l47 24 0 -24 c0 -24 2 -25 70 -25 l70 0 0 249 c0 260 -4 291 -46 347 -52
70 -196 100 -330 70z m209 -376 c24 -12 27 -19 27 -60 0 -39 -4 -49 -27 -66
-60 -44 -145 -56 -208 -30 -81 34 -72 128 15 165 32 14 157 8 193 -9z"/>
<path d="M7527 5390 c-165 -42 -255 -200 -227 -400 17 -123 75 -206 175 -252
69 -31 209 -32 276 -2 66 31 114 78 146 142 26 53 28 66 28 177 0 132 -12 171
-75 247 -62 75 -212 116 -323 88z m163 -152 c62 -32 90 -88 90 -182 0 -55 -5
-83 -22 -116 -61 -120 -235 -115 -294 7 -28 59 -25 166 6 223 28 50 92 90 145
90 17 0 51 -10 75 -22z"/>
<path d="M8405 5391 c-41 -10 -75 -29 -107 -59 l-28 -26 0 42 0 42 -70 0 -70
0 0 -335 0 -335 75 0 75 0 0 213 c0 182 2 217 18 246 49 97 181 106 246 18 20
-26 21 -44 24 -253 l3 -224 76 0 75 0 -4 248 c-3 242 -4 248 -29 303 -15 32
-40 66 -58 79 -61 43 -150 59 -226 41z"/>
</g>
</svg>
